# xmcd
#
# Track frame offsets: 
#        150
#        15083
#        25487
#        40489
#        52510
#        63248
#        73984
#        87533
#        97228
#        110537
#        128488
#        138248
#        146654
#        159230
#        171279
#        185617
#
# Disc length: 2647 seconds
#
# Revision: 5
# Processed by: cddbd v1.5.2PL0 Copyright (c) Steve Scherf et al.
# Submitted via: ExactAudioCopy v1.0b1
#
DISCID=da0a5510
DTITLE=Various Artist - Country Gold
DYEAR=1900
DGENRE=Country
TTITLE0=Kingston Trio - Tom Dooley
TTITLE1=Johnny Russell - Jambalaya
TTITLE2=Jeanie C. Riley - Harper Valley P.T.A.
TTITLE3=Del Reeves - Girl On The Billboard
TTITLE4=Johnny Russell - King Of The Road
TTITLE5=Billy Walker - Charlie's Shoes
TTITLE6=Jimmy Dean - Big Bad John
TTITLE7=Dave Dudley - Truck Drivin' Son-Of-A-Gun
TTITLE8=Lynn Anderson - Rose Garden
TTITLE9=David Houston - Nashville
TTITLE10=Dave Dudley - Cowboy Boots
TTITLE11=Frankie Miller - Family Man
TTITLE12=Hank Thompson - Oklahoma Hills
TTITLE13=Jeanie C. Riley - Country Girl
TTITLE14=R. Dean Taylor - Indiana Wants Me
TTITLE15=Faron Young - It's Four In The Morning
EXTD=
EXTT0=
EXTT1=
EXTT2=
EXTT3=
EXTT4=
EXTT5=
EXTT6=
EXTT7=
EXTT8=
EXTT9=
EXTT10=
EXTT11=
EXTT12=
EXTT13=
EXTT14=
EXTT15=
PLAYORDER=
